# xmcd
#
# Track frame offsets:
#	150
#	10865
#	23953
#	35554
#	49925
#	60491
#	70722
#	83340
#	96306
#	106320
#	119841
#	130388
#
# Disc length: 1896 seconds
#
# Revision: 0
# Processed by: cddbd v1.5.1PL0 Copyright (c) Steve Scherf et al.
# Submitted via: dBpowerAMP V4.0
#
DISCID=9e07660c
DTITLE=Elton Britt - Yodel Songs
DYEAR=1955
DGENRE=Country
TTITLE0=Give Me A Pinto Pal
TTITLE1=Maybe I'll Cry Over You
TTITLE2=Chime Bells
TTITLE3=That's How The Yodel Was Born
TTITLE4=St. James Avenue
TTITLE5=Alpine Milkman
TTITLE6=Yodel Blues
TTITLE7=Cannonball Yodel
TTITLE8=Tennessee Yodel Polka
TTITLE9=Patent Leather Boots
TTITLE10=St. Louis Blues
TTITLE11=Skater's Yodel
EXTD=
EXTT0=
EXTT1=
EXTT2=
EXTT3=
EXTT4=
EXTT5=
EXTT6=
EXTT7=
EXTT8=
EXTT9=
EXTT10=
EXTT11=
PLAYORDER=
